<svg width="153" height="34" viewBox="0 0 153 34" fill="none" xmlns="http://www.w3.org/2000/svg">
<mask id="path-1-inside-1_2679_9848" fill="white">
<path d="M139 0C146.732 0 153 6.26801 153 14C153 21.732 146.732 28 139 28H80.4639L77.8662 32.5C77.4813 33.1667 76.5187 33.1667 76.1338 32.5L73.5361 28H14C6.26801 28 0 21.732 0 14C0 6.26801 6.26801 1.65091e-07 14 0H139Z"/>
</mask>
<path d="M139 0C146.732 0 153 6.26801 153 14C153 21.732 146.732 28 139 28H80.4639L77.8662 32.5C77.4813 33.1667 76.5187 33.1667 76.1338 32.5L73.5361 28H14C6.26801 28 0 21.732 0 14C0 6.26801 6.26801 1.65091e-07 14 0H139Z" fill="#FBFDFD"/>
<path d="M139 28V29V29V28ZM80.4639 28V27H79.8865L79.5978 27.5001L80.4639 28ZM77.8662 32.5L78.7322 33L78.7323 32.9999L77.8662 32.5ZM76.1338 32.5L75.2677 32.9999L75.2678 33L76.1338 32.5ZM73.5361 28L74.4022 27.5001L74.1135 27H73.5361V28ZM14 0V-1V-1V0ZM139 0V1C146.18 1 152 6.8203 152 14H153H154C154 5.71573 147.284 -1 139 -1V0ZM153 14H152C152 21.1797 146.18 27 139 27V28V29C147.284 29 154 22.2843 154 14H153ZM139 28V27H80.4639V28V29H139V28ZM80.4639 28L79.5978 27.5001L77.0002 32.0001L77.8662 32.5L78.7323 32.9999L81.3299 28.4999L80.4639 28ZM77.8662 32.5L77.0002 32H76.9998L76.1338 32.5L75.2678 33C76.0376 34.3333 77.9624 34.3333 78.7322 33L77.8662 32.5ZM76.1338 32.5L76.9998 32.0001L74.4022 27.5001L73.5361 28L72.6701 28.4999L75.2677 32.9999L76.1338 32.5ZM73.5361 28V27H14V28V29H73.5361V28ZM14 28V27C6.8203 27 1 21.1797 1 14H0H-1C-1 22.2843 5.71573 29 14 29V28ZM0 14H1C1 6.8203 6.8203 1 14 1V0V-1C5.71573 -1 -1 5.71573 -1 14H0ZM14 0V1H139V0V-1H14V0Z" fill="#7FB0F3" mask="url(#path-1-inside-1_2679_9848)"/>
<path d="M20.7402 14.582V15.4072H10.457V14.582H15.1035V13.2236H11.8281V9.00879H12.8184V10.3164H18.4043V9.00879H19.3945V13.2236H16.0938V14.582H20.7402ZM19.4707 16.5244V20.0283H18.4678V17.3242H11.5996V16.5244H19.4707ZM12.8184 12.4238H18.4043V11.0781H12.8184V12.4238ZM25.2537 10.7227C25.241 12.1826 26.3582 13.5029 28.0339 14.0361L27.5515 14.8105C26.2503 14.3916 25.2537 13.5029 24.7712 12.373C24.2761 13.6235 23.2351 14.5884 21.8767 15.0518L21.3562 14.2646C23.0574 13.6934 24.238 12.3223 24.2507 10.7354V10.3291H21.6863V9.50391H27.7673V10.3291H25.2537V10.7227ZM30.2556 8.74219V11.3574H31.9568V12.1953H30.2556V14.9248H29.2654V8.74219H30.2556ZM24.0984 15.4707V16.8545H29.2654V15.4707H30.2556V19.876H23.1082V15.4707H24.0984ZM24.0984 19.0635H29.2654V17.6416H24.0984V19.0635ZM41.231 8.75488V12.4746H42.9321V13.3125H41.231V17.21H40.2407V8.75488H41.231ZM39.1616 10.1387V10.9512H32.4331V10.1387H35.3023V8.75488H36.2925V10.1387H39.1616ZM35.7974 11.5732C37.4097 11.5732 38.5015 12.3984 38.5142 13.6807C38.5015 14.9502 37.4097 15.7627 35.7974 15.7627C34.1724 15.7627 33.0679 14.9502 33.0806 13.6807C33.0679 12.3984 34.1724 11.5732 35.7974 11.5732ZM35.7974 12.3604C34.731 12.3604 34.02 12.8809 34.0327 13.6807C34.02 14.4805 34.731 14.9883 35.7974 14.9756C36.8511 14.9883 37.562 14.4805 37.5747 13.6807C37.562 12.8809 36.8511 12.3604 35.7974 12.3604ZM41.7515 18.9492V19.7871H34.1724V16.5371H35.1499V18.9492H41.7515ZM55.1202 8.74219V13.3379H56.9483V14.1758H55.1202V20.0283H54.1299V8.74219H55.1202ZM52.2002 9.96094C52.2002 13.1602 50.7022 16.0674 47.0205 17.8828L46.462 17.0957C49.3819 15.6421 50.9688 13.4712 51.1973 10.7988H46.9825V9.96094H52.2002ZM66.6795 8.74219V14.7979H65.6893V8.74219H66.6795ZM60.3572 15.3691V16.7402H65.6893V15.3691H66.6795V19.876H59.367V15.3691H60.3572ZM60.3572 19.0635H65.6893V17.54H60.3572V19.0635ZM60.5857 9.30078C62.2996 9.28809 63.5438 10.3418 63.5438 11.8906C63.5438 13.4268 62.2996 14.4805 60.5857 14.4805C58.8719 14.4805 57.6277 13.4268 57.6277 11.8906C57.6277 10.3418 58.8719 9.28809 60.5857 9.30078ZM60.5857 10.1387C59.4305 10.126 58.5926 10.8623 58.6053 11.8906C58.5926 12.9189 59.4305 13.6553 60.5857 13.6553C61.7283 13.6553 62.5662 12.9189 62.5662 11.8906C62.5662 10.8623 61.7283 10.126 60.5857 10.1387ZM75.2493 10.4941C75.2493 11.8398 76.3919 13.1348 78.0169 13.6553L77.5218 14.4424C76.2459 14.0171 75.2493 13.1411 74.7669 12.043C74.2591 13.2554 73.2117 14.252 71.8851 14.709L71.39 13.9219C73.0404 13.3506 74.2464 11.9414 74.2464 10.4814V10.1641H71.6946V9.33887H77.7757V10.1641H75.2493V10.4941ZM80.6829 8.74219V14.582H79.6927V12.0938H77.4202V11.2686H79.6927V8.74219H80.6829ZM80.6829 15.1406V17.8447H74.3861V19.1016H81.1146V19.9014H73.3958V17.083H79.6927V15.9531H73.3704V15.1406H80.6829ZM86.0723 12.4238C86.0723 14.2266 87.253 16.0801 88.8907 16.8672L88.3067 17.6416C87.0626 17.0322 86.0787 15.8008 85.6153 14.3408C85.1202 15.9087 84.0728 17.2227 82.7843 17.8447L82.213 17.0703C83.8634 16.2959 85.0948 14.3662 85.1075 12.4238V11.5225H82.5177V10.71H85.0948V8.95801H86.0977V10.71H88.6368V11.5225H86.0723V12.4238ZM91.0489 8.74219V13.376H92.9405V14.2266H91.0489V20.0283H90.0587V8.74219H91.0489ZM98.5396 15.3691V16.7783H100.596V15.3691H101.523V19.876H97.6002V15.3691H98.5396ZM98.5396 19.0889H100.596V17.54H98.5396V19.0889ZM104.748 16.2578C104.735 17.4512 105.446 18.6953 106.83 19.2031L106.309 19.9648C105.268 19.5459 104.583 18.7524 104.24 17.8066C103.878 18.7334 103.192 19.5332 102.196 19.9648L101.675 19.2031C103.034 18.6445 103.757 17.4004 103.757 16.2578V15.293H104.748V16.2578ZM99.4029 9.25C100.914 9.25 102.069 10.1069 102.285 11.4082H104.646V8.74219H105.649V14.7217H104.646V12.2334H102.297C102.094 13.5664 100.933 14.4424 99.4029 14.4424C97.6891 14.4424 96.4703 13.3887 96.4703 11.8398C96.4703 10.3037 97.6891 9.25 99.4029 9.25ZM99.4029 10.0879C98.2477 10.0879 97.4225 10.8115 97.4225 11.8398C97.4225 12.8809 98.2477 13.6172 99.4029 13.6172C100.546 13.6172 101.358 12.8809 101.358 11.8398C101.358 10.8115 100.546 10.0879 99.4029 10.0879ZM116.574 8.74219V20.0537H115.571V8.74219H116.574ZM110.569 9.61816C112.244 9.63086 113.451 11.1543 113.451 13.5537C113.451 15.9531 112.244 17.4766 110.569 17.4766C108.88 17.4766 107.687 15.9531 107.687 13.5537C107.687 11.1543 108.88 9.63086 110.569 9.61816ZM110.569 10.5068C109.439 10.5195 108.652 11.7129 108.652 13.5537C108.652 15.3945 109.439 16.5879 110.569 16.5879C111.699 16.5879 112.486 15.3945 112.486 13.5537C112.486 11.7129 111.699 10.5195 110.569 10.5068ZM129.98 8.74219V13.1855H131.872V14.0488H129.98V20.0283H128.99V8.74219H129.98ZM122.706 9.70703V12.6904H126.007V9.70703H126.997V17.3242H121.716V9.70703H122.706ZM122.706 16.4863H126.007V13.4902H122.706V16.4863ZM142.555 17.7939V18.6318H132.221V17.7939H136.868V15.6611H133.516V12.1826H140.27V10.4053H133.491V9.58008H141.248V12.9951H134.506V14.8359H141.514V15.6611H137.845V17.7939H142.555Z" fill="#217CF9"/>
</svg>
