<svg width="32" height="32" viewBox="0 0 32 32" fill="none" xmlns="http://www.w3.org/2000/svg">
<path d="M28.9734 24L18.3067 5.33331C18.0741 4.92291 17.7368 4.58156 17.3293 4.34407C16.9217 4.10657 16.4584 3.98145 15.9867 3.98145C15.515 3.98145 15.0517 4.10657 14.6441 4.34407C14.2366 4.58156 13.8993 4.92291 13.6667 5.33331L3.00003 24C2.76494 24.4071 2.64167 24.8692 2.64271 25.3393C2.64375 25.8095 2.76907 26.271 3.00596 26.6771C3.24285 27.0832 3.58289 27.4194 3.99162 27.6517C4.40035 27.8841 4.86324 28.0042 5.33336 28H26.6667C27.1346 27.9995 27.5941 27.8759 27.9991 27.6417C28.4041 27.4074 28.7403 27.0708 28.974 26.6655C29.2078 26.2602 29.3307 25.8005 29.3306 25.3326C29.3305 24.8648 29.2073 24.4052 28.9734 24Z" stroke="#242A30" stroke-width="2.5" stroke-linecap="round" stroke-linejoin="round"/>
<path d="M16 12V17.3333" stroke="#242A30" stroke-width="2.5" stroke-linecap="round" stroke-linejoin="round"/>
<path d="M16 22.6667H16.0125" stroke="#242A30" stroke-width="2" stroke-linecap="round" stroke-linejoin="round"/>
</svg>
