<svg width="32" height="32" viewBox="0 0 32 32" fill="none" xmlns="http://www.w3.org/2000/svg">
<path d="M16 17.3333C16.7363 17.3333 17.3333 16.7364 17.3333 16C17.3333 15.2636 16.7363 14.6667 16 14.6667C15.2636 14.6667 14.6666 15.2636 14.6666 16C14.6666 16.7364 15.2636 17.3333 16 17.3333Z" stroke="#242A30" stroke-width="2.5" stroke-linecap="round" stroke-linejoin="round"/>
<path d="M26.9333 26.9333C29.6533 24.2267 26.96 17.12 20.9333 11.0667C14.88 5.04 7.7733 2.34667 5.06664 5.06667C2.34664 7.77333 5.03997 14.88 11.0666 20.9333C17.12 26.96 24.2266 29.6533 26.9333 26.9333Z" stroke="#242A30" stroke-width="2.5" stroke-linecap="round" stroke-linejoin="round"/>
<path d="M20.9333 20.9333C26.96 14.88 29.6533 7.77333 26.9333 5.06667C24.2266 2.34667 17.12 5.04 11.0666 11.0667C5.03997 17.12 2.34664 24.2267 5.06664 26.9333C7.7733 29.6533 14.88 26.96 20.9333 20.9333Z" stroke="#242A30" stroke-width="2.5" stroke-linecap="round" stroke-linejoin="round"/>
</svg>
