<svg width="40" height="40" viewBox="0 0 40 40" fill="none" xmlns="http://www.w3.org/2000/svg">
<g clip-path="url(#clip0_184_1504)">
<path d="M0 20C0 8.95431 8.95431 0 20 0C31.0457 0 40 8.95431 40 20C40 31.0457 31.0457 40 20 40C8.95431 40 0 31.0457 0 20Z" fill="#A1C7F8"/>
<path d="M4 42.0464C4 34.5894 10.0451 28.5443 17.5021 28.5443H22.1026C29.5596 28.5443 35.6047 34.5894 35.6047 42.0464C35.6047 42.9785 34.8491 43.7342 33.917 43.7342H5.68777C4.75564 43.7342 4 42.9785 4 42.0464Z" fill="#F1F7FE"/>
<path d="M19.9482 6.26587C24.8967 6.26605 28.9203 10.2101 29.0547 15.1262C29.0576 15.1262 29.0606 15.1262 29.0635 15.1262C30.3218 15.1263 31.3418 16.1472 31.3418 17.4055V18.4182C31.3415 19.6763 30.3216 20.6964 29.0635 20.6965C28.8606 20.6965 28.6647 20.6662 28.4775 20.6165C27.1786 24.0649 23.851 26.5187 19.9482 26.5188C16.0457 26.5188 12.7172 24.0656 11.418 20.6174C11.2316 20.6667 11.0368 20.6965 10.835 20.6965C9.57659 20.6965 8.55664 19.6756 8.55664 18.4172V17.4055C8.55664 16.1471 9.57659 15.1262 10.835 15.1262C10.8366 15.1262 10.8382 15.1262 10.8398 15.1262C10.9742 10.21 14.9996 6.26587 19.9482 6.26587Z" fill="#F1F7FE"/>
<rect x="18.6836" y="18.4177" width="2.53165" height="1.26582" rx="0.632911" fill="#7FB0F3"/>
<path d="M17.29 16.6456C17.4998 16.6456 17.6699 16.8158 17.6699 17.0255C17.6699 17.2039 17.5467 17.352 17.3809 17.3927C17.4039 17.4775 17.418 17.5662 17.418 17.6583C17.4179 18.2176 16.9645 18.671 16.4053 18.671H15.6455C15.0864 18.6709 14.6328 18.2175 14.6328 17.6583C14.6328 17.5709 14.6452 17.4863 14.666 17.4054H13.4932C13.2835 17.4054 13.1134 17.2352 13.1133 17.0255C13.1133 16.8158 13.2834 16.6456 13.4932 16.6456H17.29Z" fill="#7FB0F3"/>
<path d="M22.6064 16.6456C22.3967 16.6456 22.2266 16.8158 22.2266 17.0255C22.2267 17.2045 22.3508 17.3527 22.5176 17.3927C22.4946 17.4775 22.4805 17.5662 22.4805 17.6583C22.4805 18.2176 22.9339 18.671 23.4932 18.671H24.2529C24.8121 18.6709 25.2656 18.2175 25.2656 17.6583C25.2656 17.5709 25.2532 17.4863 25.2324 17.4054H26.4033C26.613 17.4054 26.7831 17.2352 26.7832 17.0255C26.7832 16.8158 26.613 16.6456 26.4033 16.6456H22.6064Z" fill="#7FB0F3"/>
<rect x="13.1133" y="14.3671" width="4.55696" height="1.26582" rx="0.632911" fill="#7FB0F3"/>
<rect width="4.55696" height="1.26582" rx="0.632911" transform="matrix(-1 0 0 1 26.7852 14.3671)" fill="#7FB0F3"/>
</g>
<defs>
<clipPath id="clip0_184_1504">
<path d="M0 20C0 8.95431 8.95431 0 20 0C31.0457 0 40 8.95431 40 20C40 31.0457 31.0457 40 20 40C8.95431 40 0 31.0457 0 20Z" fill="white"/>
</clipPath>
</defs>
</svg>
