<svg width="57" height="20" viewBox="0 0 57 20" fill="none" xmlns="http://www.w3.org/2000/svg">
<g clip-path="url(#clip0_2572_7901)">
<path d="M56.1754 14.5884H53.3124L52.5293 0.804138H56.9714L56.1754 14.5884ZM56.9457 17.8047C56.9457 18.111 56.8858 18.4003 56.766 18.6726C56.6547 18.9364 56.5006 19.1661 56.3038 19.3618C56.1069 19.5575 55.8758 19.7107 55.6105 19.8213C55.3452 19.9404 55.0627 20 54.7632 20C54.455 20 54.1683 19.9404 53.903 19.8213C53.6377 19.7107 53.4023 19.5575 53.1969 19.3618C53 19.1661 52.8417 18.9364 52.7219 18.6726C52.6106 18.4003 52.555 18.111 52.555 17.8047C52.555 17.5069 52.6106 17.2261 52.7219 16.9624C52.8417 16.6986 53 16.4689 53.1969 16.2731C53.4023 16.0774 53.6377 15.9243 53.903 15.8137C54.1683 15.6945 54.455 15.635 54.7632 15.635C55.0627 15.635 55.3452 15.6945 55.6105 15.8137C55.8758 15.9243 56.1069 16.0774 56.3038 16.2731C56.5006 16.4689 56.6547 16.6986 56.766 16.9624C56.8858 17.2261 56.9457 17.5069 56.9457 17.8047Z" fill="#242A30"/>
<path d="M41.97 19.1065H38.4395V0H41.97V12.0485L47.1952 5.46265H51.2264L46.6688 11.155L51.2264 19.1065H47.1952L44.4093 14.1416L41.97 17.358V19.1065Z" fill="#242A30"/>
<path d="M36.2825 19.1066H35.4351L34.0743 17.2304C33.7405 17.5282 33.3853 17.809 33.0087 18.0728C32.6406 18.3281 32.2512 18.5536 31.8404 18.7493C31.4296 18.9365 31.0059 19.0854 30.5694 19.196C30.1414 19.3066 29.7049 19.3619 29.2599 19.3619C28.2927 19.3619 27.3812 19.2002 26.5253 18.8769C25.678 18.5536 24.9334 18.0856 24.2914 17.4729C23.6581 16.8518 23.1574 16.0945 22.7894 15.2011C22.4213 14.3077 22.2373 13.2909 22.2373 12.1507C22.2373 11.0871 22.4213 10.1128 22.7894 9.2279C23.1574 8.33448 23.6581 7.56869 24.2914 6.93053C24.9334 6.29237 25.678 5.79886 26.5253 5.45C27.3812 5.09263 28.2927 4.91394 29.2599 4.91394C29.7049 4.91394 30.1457 4.96925 30.5822 5.07986C31.0187 5.19048 31.4424 5.34364 31.8532 5.53934C32.2641 5.73504 32.6535 5.96478 33.0215 6.22855C33.3981 6.49232 33.749 6.77737 34.0743 7.08369L35.4351 5.46276H36.2825V19.1066ZM32.7519 12.1507C32.7519 11.6742 32.6578 11.2147 32.4695 10.7723C32.2897 10.3213 32.0415 9.92563 31.7248 9.58527C31.4082 9.23641 31.0358 8.95988 30.6079 8.75567C30.1885 8.54295 29.7392 8.43659 29.2599 8.43659C28.7806 8.43659 28.327 8.51742 27.899 8.67909C27.4796 8.84075 27.1116 9.079 26.7949 9.39383C26.4868 9.70865 26.2429 10.1001 26.0631 10.568C25.8834 11.0275 25.7935 11.5551 25.7935 12.1507C25.7935 12.7463 25.8834 13.2781 26.0631 13.7461C26.2429 14.2056 26.4868 14.5927 26.7949 14.9075C27.1116 15.2224 27.4796 15.4606 27.899 15.6223C28.327 15.7839 28.7806 15.8648 29.2599 15.8648C29.7392 15.8648 30.1885 15.7627 30.6079 15.5585C31.0358 15.3457 31.4082 15.0692 31.7248 14.7288C32.0415 14.38 32.2897 13.9843 32.4695 13.5419C32.6578 13.0909 32.7519 12.6272 32.7519 12.1507Z" fill="#242A30"/>
<path d="M18.86 19.1065C18.0127 19.1065 17.2167 18.9491 16.4721 18.6343C15.7274 18.3109 15.0727 17.8727 14.5078 17.3197C13.9515 16.7581 13.5107 16.1072 13.1854 15.3669C12.8688 14.6266 12.7104 13.8353 12.7104 12.9929V8.93425H11.0029V5.46265H12.7104V0H16.2025V5.46265H21.5175V8.93425H16.2025V12.9929C16.2025 13.3588 16.2709 13.7034 16.4079 14.0268C16.5448 14.3416 16.7331 14.6181 16.9728 14.8564C17.2124 15.0946 17.4949 15.2861 17.8201 15.4307C18.1453 15.5669 18.492 15.6349 18.86 15.6349H21.5175V19.1065H18.86Z" fill="#242A30"/>
<path d="M7.85707 19.1065C7.00974 19.1065 6.21376 18.9491 5.46913 18.6343C4.72451 18.3109 4.06975 17.8727 3.50487 17.3197C2.94854 16.7581 2.50776 16.1072 2.18252 15.3669C1.86584 14.6266 1.7075 13.8353 1.7075 12.9929V8.93425H0V5.46265H1.7075V0H5.19953V5.46265H10.5146V8.93425H5.19953V12.9929C5.19953 13.3588 5.268 13.7034 5.40494 14.0268C5.54188 14.3416 5.73018 14.6181 5.96983 14.8564C6.20948 15.0946 6.49192 15.2861 6.81716 15.4307C7.1424 15.5669 7.48903 15.6349 7.85707 15.6349H10.5146V19.1065H7.85707Z" fill="#242A30"/>
</g>
<defs>
<clipPath id="clip0_2572_7901">
<rect width="57" height="20" fill="white"/>
</clipPath>
</defs>
</svg>
